<svg xmlns="http://www.w3.org/2000/svg" viewBox="0 0 50 50" width="100px" height="100px">
    <title>Xing</title>
    <path
        d="M43.698,2.099l-37.485,0c-2.298,0 -4.213,1.916 -4.213,4.213l0,37.485c0,2.288 1.915,4.203 4.213,4.203l37.485,0c2.287,0 4.202,-1.915 4.202,-4.203l0,-37.485c0,-2.297 -1.915,-4.213 -4.202,-4.213Zm-27.54,30.901l-5.36,0c-0.785,-0.026 -0.961,-0.69 -0.571,-1.26l5.549,-10.24c0.186,-0.186 0.186,-0.461 0,-0.657l-3.659,-6.391c-0.196,-0.383 0,-0.952 0.383,-0.952l5.5,0c0.196,0 0.385,0.043 0.579,0.383l4.08,7.156c0.186,0.187 0.186,0.373 0,0.569l-5.932,10.9c0,0 -0.227,0.474 -0.569,0.492Zm23.329,-24.204l-10.737,19.704c-0.186,0.196 -0.186,0.304 0,0.5l6.907,12.303c0.381,0.727 0,1.197 -0.569,1.197l-5.35,0c-0.196,0 -0.312,-0.133 -0.581,-0.616l-7.266,-12.884c-0.134,-0.15 -0.129,-0.33 0,-0.509l11.096,-20.462c0.225,-0.43 0.567,-0.529 0.763,-0.529l5.25,0c0.676,-0.018 0.789,0.687 0.487,1.296Z"
        style="fill-rule:nonzero;" />
</svg>
